<svg viewBox="0 0 139.2 26" xmlns="http://www.w3.org/2000/svg" xmlns:xlink="http://www.w3.org/1999/xlink" width="139.200012" height="26.000000" fill="none" customFrame="#000000">
	<defs>
		<clipPath id="clipPath_0">
			<rect width="26.000000" height="26.000000" x="0.000000" y="0.000000" fill="rgb(255,255,255)" />
		</clipPath>
	</defs>
	<rect id="Logo" width="139.199997" height="26.000000" x="0.000000" y="0.000000" />
	<g id="Waveform" clip-path="url(#clipPath_0)" customFrame="url(#clipPath_0)">
		<rect id="Waveform" width="26.000000" height="26.000000" x="0.000000" y="0.000000" fill="rgb(255,255,255)" fill-opacity="0" />
		<path id="Vector" />
		<path id="Vector" d="M0 0L6.5 0" stroke="rgb(81.6382,72.3756,62.1867)" stroke-linecap="round" stroke-linejoin="round" stroke-width="2.43750048" transform="matrix(0,1,-1,0,4.87494,9.75)" />
		<path id="Vector" d="M0 0L19.5 0" stroke="rgb(81.6382,72.3756,62.1867)" stroke-linecap="round" stroke-linejoin="round" stroke-width="2.43750048" transform="matrix(0,1,-1,0,8.93744,3.25)" />
		<path id="Vector" d="M0 0L13 0" stroke="rgb(81.6382,72.3756,62.1867)" stroke-linecap="round" stroke-linejoin="round" stroke-width="2.43750048" transform="matrix(0,1,-1,0,12.9999,6.5)" />
		<path id="Vector" d="M0 0L6.5 0" stroke="rgb(81.6382,72.3756,62.1867)" stroke-linecap="round" stroke-linejoin="round" stroke-width="2.43750048" transform="matrix(0,1,-1,0,17.0624,9.75)" />
		<path id="Vector" d="M0 0L9.75 0" stroke="rgb(81.6382,72.3756,62.1867)" stroke-linecap="round" stroke-linejoin="round" stroke-width="2.43750048" transform="matrix(0,1,-1,0,21.1251,8.125)" />
	</g>
	<path id="Main Title" d="M36.6075 20L33.5881 14.6693L32.2961 14.6693L32.2961 20L29.5542 20L29.5542 6.31924L34.6887 6.31924Q36.2773 6.31924 37.3923 6.8791Q38.5072 7.43418 39.0671 8.38643Q39.6269 9.33867 39.6269 10.5158Q39.6269 11.8652 38.8422 12.9562Q38.0574 14.0425 36.5118 14.454L39.7849 20L36.6075 20ZM32.2961 12.6117L34.5882 12.6117Q35.7079 12.6117 36.2534 12.0758Q36.8037 11.5351 36.8037 10.5732Q36.8037 9.63057 36.2534 9.11377Q35.7079 8.59219 34.5882 8.59219L32.2961 8.59219L32.2961 12.6117ZM52.2097 14.3344Q52.2097 14.9229 52.1331 15.3919L44.1946 15.3919Q44.2903 16.569 45.0128 17.239Q45.7402 17.9041 46.8025 17.9041Q48.3289 17.9041 48.9749 16.5882L51.9369 16.5882Q51.4632 18.1577 50.1281 19.1674Q48.7979 20.1771 46.8599 20.1771Q45.2904 20.1771 44.0462 19.4832Q42.8021 18.7846 42.1034 17.5117Q41.4096 16.2389 41.4096 14.5688Q41.4096 12.8845 42.0939 11.6116Q42.7829 10.3388 44.0175 9.65449Q45.2521 8.96543 46.8599 8.96543Q48.4055 8.96543 49.6305 9.63057Q50.8555 10.2957 51.5302 11.5207Q52.2097 12.7457 52.2097 14.3344ZM49.3673 13.5496Q49.3482 12.4921 48.6017 11.8557Q47.86 11.2192 46.7785 11.2192Q45.7593 11.2192 45.0655 11.8365Q44.3716 12.4538 44.2137 13.5496L49.3673 13.5496ZM58.3645 20.1771Q57.0295 20.1771 55.9719 19.6985Q54.9144 19.2152 54.2971 18.3922Q53.6798 17.5691 53.6224 16.569L56.3835 16.569Q56.4648 17.1959 57.0007 17.6074Q57.5415 18.0189 58.3454 18.0189Q59.1301 18.0189 59.5704 17.7079Q60.0106 17.3921 60.0106 16.904Q60.0106 16.3729 59.4699 16.1097Q58.9339 15.8465 57.7568 15.5307Q56.5414 15.2388 55.7662 14.9277Q54.991 14.6119 54.4311 13.9659Q53.876 13.3151 53.876 12.2193Q53.876 11.3149 54.3928 10.5732Q54.9144 9.82676 55.8858 9.39609Q56.8572 8.96543 58.1683 8.96543Q60.1111 8.96543 61.2643 9.93682Q62.4223 10.9034 62.5372 12.5543L59.9149 12.5543Q59.8527 11.9035 59.3742 11.5255Q58.8957 11.1427 58.0918 11.1427Q57.3453 11.1427 56.9433 11.4154Q56.5414 11.6882 56.5414 12.1811Q56.5414 12.7266 57.0869 13.0137Q57.6372 13.296 58.7952 13.5927Q59.9723 13.8846 60.7332 14.2004Q61.4988 14.5114 62.0587 15.1718Q62.6185 15.8273 62.6377 16.904Q62.6377 17.8419 62.1161 18.5884Q61.5993 19.3349 60.6279 19.756Q59.6565 20.1771 58.3645 20.1771ZM69.7116 20.1771Q68.1469 20.1771 66.8884 19.4832Q65.6347 18.7846 64.9169 17.5117Q64.2039 16.2389 64.2039 14.5688Q64.2039 12.9036 64.9361 11.6308Q65.673 10.3579 66.9458 9.66406Q68.2235 8.96543 69.793 8.96543Q71.3577 8.96543 72.6306 9.66406Q73.9082 10.3579 74.6404 11.6308Q75.3773 12.9036 75.3773 14.5688Q75.3773 16.2389 74.6212 17.5117Q73.8699 18.7846 72.5827 19.4832Q71.3003 20.1771 69.7116 20.1771ZM69.7116 17.7845Q70.4581 17.7845 71.1137 17.4256Q71.7693 17.0619 72.1617 16.3346Q72.554 15.6072 72.554 14.5688Q72.554 13.0232 71.7406 12.1906Q70.9271 11.358 69.7499 11.358Q68.5776 11.358 67.7832 12.1906Q66.9889 13.0232 66.9889 14.5688Q66.9889 16.1192 67.7593 16.9519Q68.5345 17.7845 69.7116 17.7845ZM83.4127 8.98457Q85.3555 8.98457 86.547 10.2096Q87.7433 11.4346 87.7433 13.631L87.7433 20L85.0014 20L85.0014 14.0042Q85.0014 12.7074 84.3554 12.0136Q83.7094 11.3149 82.5897 11.3149Q81.4508 11.3149 80.7953 12.0136Q80.1397 12.7074 80.1397 14.0042L80.1397 20L77.3978 20L77.3978 9.14248L80.1397 9.14248L80.1397 10.4919Q80.69 9.78848 81.5417 9.38652Q82.3935 8.98457 83.4127 8.98457ZM89.6452 14.5306Q89.6452 12.8845 90.3008 11.6116Q90.9611 10.3388 92.0856 9.65449Q93.2149 8.96543 94.6026 8.96543Q95.818 8.96543 96.7272 9.4583Q97.6412 9.94639 98.1915 10.6881L98.1915 9.14248L100.957 9.14248L100.957 20L98.1915 20L98.1915 18.4113Q97.6603 19.177 96.7272 19.6794Q95.7989 20.1771 94.5835 20.1771Q93.2149 20.1771 92.0856 19.4736Q90.9611 18.7654 90.3008 17.483Q89.6452 16.1958 89.6452 14.5306ZM98.1915 14.5688Q98.1915 13.5735 97.7991 12.8605Q97.4067 12.1428 96.7416 11.76Q96.0764 11.3771 95.3108 11.3771Q94.5452 11.3771 93.8992 11.7504Q93.2532 12.1188 92.8512 12.8366Q92.4493 13.5496 92.4493 14.5306Q92.4493 15.5115 92.8512 16.2484Q93.2532 16.9806 93.9088 17.3729Q94.5643 17.7653 95.3108 17.7653Q96.0764 17.7653 96.7416 17.3825Q97.4067 16.9997 97.7991 16.2867Q98.1915 15.5689 98.1915 14.5688ZM109.657 8.98457Q111.6 8.98457 112.791 10.2096Q113.988 11.4346 113.988 13.631L113.988 20L111.246 20L111.246 14.0042Q111.246 12.7074 110.6 12.0136Q109.954 11.3149 108.834 11.3149Q107.695 11.3149 107.04 12.0136Q106.384 12.7074 106.384 14.0042L106.384 20L103.642 20L103.642 9.14248L106.384 9.14248L106.384 10.4919Q106.934 9.78848 107.786 9.38652Q108.638 8.98457 109.657 8.98457ZM115.89 14.5688Q115.89 12.8845 116.574 11.6212Q117.263 10.3579 118.478 9.66406Q119.694 8.96543 121.259 8.96543Q123.278 8.96543 124.599 9.9751Q125.924 10.9848 126.379 12.8079L123.417 12.8079Q123.182 12.0997 122.622 11.6978Q122.062 11.2958 121.239 11.2958Q120.067 11.2958 119.378 12.1523Q118.694 13.0041 118.694 14.5688Q118.694 16.1192 119.378 16.971Q120.067 17.8228 121.239 17.8228Q122.909 17.8228 123.417 16.3346L126.379 16.3346Q125.924 18.1003 124.589 19.1387Q123.259 20.1771 121.259 20.1771Q119.694 20.1771 118.478 19.4832Q117.263 18.7846 116.574 17.5213Q115.89 16.258 115.89 14.5688ZM138.489 14.3344Q138.489 14.9229 138.412 15.3919L130.474 15.3919Q130.569 16.569 131.292 17.239Q132.019 17.9041 133.082 17.9041Q134.608 17.9041 135.254 16.5882L138.216 16.5882Q137.742 18.1577 136.407 19.1674Q135.077 20.1771 133.139 20.1771Q131.57 20.1771 130.325 19.4832Q129.081 18.7846 128.383 17.5117Q127.689 16.2389 127.689 14.5688Q127.689 12.8845 128.373 11.6116Q129.062 10.3388 130.297 9.65449Q131.531 8.96543 133.139 8.96543Q134.685 8.96543 135.91 9.63057Q137.135 10.2957 137.809 11.5207Q138.489 12.7457 138.489 14.3344ZM135.647 13.5496Q135.627 12.4921 134.881 11.8557Q134.139 11.2192 133.058 11.2192Q132.038 11.2192 131.345 11.8365Q130.651 12.4538 130.493 13.5496L135.647 13.5496Z" fill="rgb(81.6382,72.3756,62.1867)" fill-rule="nonzero" />
</svg>
